# xmcd
#
# Track frame offsets:
#	150
#	13068
#	24974
#	39180
#	52362
#	67357
#	80572
#	93908
#	106657
#	119900
#	132111
#	145356
#	156736
#	169553
#	182349
#	194164
#	206572
#	218853
#	231769
#	243613
#	256649
#	269040
#	281850
#	294236
#	306703
#
# Disc length: 4248 seconds
# Revision: 3
# Processed by: cddbd v1.5.2PL0 Copyright (c) Steve Scherf et al.
# Submitted via: dBpowerAMP V12.0
#
DISCID=89109619
DTITLE=Various Artist - Broke, Black and Blue Volume 4 - Jumpin' at the Club Blue Flame
DYEAR=1940
DGENRE=Blues
TTITLE0=Faber Smith and Jimmy Yancey - East St Louis Blues
TTITLE1=Bukka White - Bukka's Jitterbug Swing
TTITLE2=Big Maceo - Can't You Read
TTITLE3=Memphis Slim - Life is Like That
TTITLE4=Forest City Joe - Memory of Sonny Boy
TTITLE5=Lee Brown - Horse Shoe Boogie
TTITLE6=Lee Brown - Ruby Moore Blues
TTITLE7=Lee Brown - Low Land Blues
TTITLE8=Lee Brown - Round the World Boogie
TTITLE9=Jimmie Gordon - Rock That Boogie
TTITLE10=Jimmie Gordon - Fast Life
TTITLE11=Jimmie Gordon - Mistreated Blues
TTITLE12=Jimmie Gordon - I Ain't Like That No More
TTITLE13=Johnny Temple - Chain Gang Blues
TTITLE14=Johnny Temple - Yum, Yum, Yum
TTITLE15=Jimmie Gordon - My Baby's Acting Funny
TTITLE16=Jimmie Gordon - It's Time to Go
TTITLE17=Jimmie Gordon - That Woman's a Pearl Diver
TTITLE18=Jimmie Gordon - Jumpin' at the Club Blue Flame
TTITLE19=Johnny Temple - I Believe I'll Go Downtown Again
TTITLE20=Johnny Temple - Something in the Moon That Gives Me a Thrill
TTITLE21=Johnny Temple - Dixie Flyer
TTITLE22=Johnny Temple - Believe My Sins Have Found Me Out
TTITLE23=Johnny Temple - Rhythm Mama
TTITLE24=Lee Brown - New Little Girl, Little Girl
EXTD=
EXTT0=
EXTT1=
EXTT2=
EXTT3=
EXTT4=
EXTT5=
EXTT6=
EXTT7=
EXTT8=
EXTT9=
EXTT10=
EXTT11=
EXTT12=
EXTT13=
EXTT14=
EXTT15=
EXTT16=
EXTT17=
EXTT18=
EXTT19=
EXTT20=
EXTT21=
EXTT22=
EXTT23=
EXTT24=
PLAYORDER=
